<svg width="1200" height="900" viewBox="0 0 1200 900" fill="none" xmlns="http://www.w3.org/2000/svg">
  <defs>
    <linearGradient id="sky" x1="600" y1="24" x2="600" y2="900" gradientUnits="userSpaceOnUse">
      <stop stop-color="#D9F0FF"/>
      <stop offset="0.52" stop-color="#8FC6D3"/>
      <stop offset="1" stop-color="#23495E"/>
    </linearGradient>
    <linearGradient id="ground" x1="600" y1="544" x2="600" y2="900" gradientUnits="userSpaceOnUse">
      <stop stop-color="#F5C88F"/>
      <stop offset="1" stop-color="#7A4B43"/>
    </linearGradient>
    <linearGradient id="gown" x1="616" y1="408" x2="616" y2="808" gradientUnits="userSpaceOnUse">
      <stop stop-color="#1E303C"/>
      <stop offset="1" stop-color="#10181D"/>
    </linearGradient>
  </defs>
  <rect width="1200" height="900" rx="40" fill="url(#sky)"/>
  <rect x="70" y="74" width="1060" height="752" rx="30" fill="white" fill-opacity="0.08" stroke="white" stroke-opacity="0.2"/>
  <circle cx="270" cy="180" r="92" fill="#FFF5CC"/>
  <path d="M0 616C173 556 336 531 495 542C669 554 833 613 1200 667V900H0V616Z" fill="url(#ground)"/>
  <path d="M144 591L144 386L254 386L254 313L393 313L393 247L529 247L529 313L671 313L671 386L784 386L784 591H144Z" fill="#F6E0D1" fill-opacity="0.7"/>
  <path d="M799 591L799 352L902 352L902 286L1010 286L1010 352L1112 352L1112 591H799Z" fill="#EAD5C5" fill-opacity="0.72"/>
  <path d="M216 591V432H707V591" stroke="#C28C72" stroke-width="24" stroke-linecap="round"/>
  <path d="M867 591V401H1040V591" stroke="#B47666" stroke-width="20" stroke-linecap="round"/>
  <path d="M577 417L718 470L615 514L473 460L577 417Z" fill="#1B2C38"/>
  <path d="M576 444L681 484L615 507L509 468L576 444Z" fill="#263846"/>
  <path d="M614 514V549" stroke="#E6C780" stroke-width="10" stroke-linecap="round"/>
  <circle cx="614" cy="563" r="19" fill="#E6C780"/>
  <path d="M531 523C558 480 605 454 657 457C706 461 750 494 771 539L803 605C828 655 833 713 816 768L796 832H445L425 771C408 719 412 661 438 613L531 523Z" fill="url(#gown)"/>
  <path d="M582 377C582 435 535 482 477 482C419 482 372 435 372 377C372 319 419 272 477 272C535 272 582 319 582 377Z" fill="#5E403D"/>
  <path d="M451 449C535 425 621 436 693 478C765 519 816 589 836 671C767 627 694 604 611 603C500 601 396 640 302 710C317 621 364 540 433 484L451 449Z" fill="#F7E5D8" fill-opacity="0.38"/>
  <path d="M125 248L183 198L231 255L173 307L125 248Z" fill="white" fill-opacity="0.3"/>
  <path d="M1021 183L1091 232L1045 296L974 247L1021 183Z" fill="white" fill-opacity="0.24"/>
  <path d="M160 164L175 124L215 143L199 182L160 164Z" fill="#E7A663"/>
  <path d="M992 132L1008 92L1046 108L1030 148L992 132Z" fill="#E7A663"/>
  <circle cx="230" cy="247" r="10" fill="#E7A663"/>
  <circle cx="279" cy="202" r="9" fill="#F8E7B9"/>
  <circle cx="951" cy="176" r="10" fill="#F8E7B9"/>
  <circle cx="1059" cy="219" r="9" fill="#E7A663"/>
</svg>
