<svg width="1200" height="900" viewBox="0 0 1200 900" fill="none" xmlns="http://www.w3.org/2000/svg">
  <defs>
    <linearGradient id="bg" x1="140" y1="90" x2="1020" y2="820" gradientUnits="userSpaceOnUse">
      <stop stop-color="#F4D4C2"/>
      <stop offset="0.48" stop-color="#DAA287"/>
      <stop offset="1" stop-color="#355D68"/>
    </linearGradient>
    <linearGradient id="figure" x1="600" y1="320" x2="600" y2="820" gradientUnits="userSpaceOnUse">
      <stop stop-color="#39252B"/>
      <stop offset="1" stop-color="#17252D"/>
    </linearGradient>
    <linearGradient id="dress" x1="590" y1="470" x2="710" y2="860" gradientUnits="userSpaceOnUse">
      <stop stop-color="#F7E7D8"/>
      <stop offset="1" stop-color="#B97B70"/>
    </linearGradient>
    <radialGradient id="glow" cx="0" cy="0" r="1" gradientUnits="userSpaceOnUse" gradientTransform="translate(800 250) rotate(126.573) scale(307.944 339.53)">
      <stop stop-color="#FFF7E7"/>
      <stop offset="1" stop-color="#FFF7E7" stop-opacity="0"/>
    </radialGradient>
  </defs>
  <rect width="1200" height="900" rx="40" fill="url(#bg)"/>
  <rect x="72" y="72" width="1056" height="756" rx="28" fill="white" fill-opacity="0.08" stroke="white" stroke-opacity="0.18"/>
  <circle cx="810" cy="240" r="250" fill="url(#glow)"/>
  <path d="M119 714C255 612 367 579 491 580C613 580 747 611 889 703L889 899L119 899L119 714Z" fill="#214451" fill-opacity="0.6"/>
  <path d="M256 257C355 144 511 112 650 147C790 182 894 282 929 438C845 352 729 304 609 305C472 306 354 369 282 484C248 429 228 351 256 257Z" fill="#A55B58" fill-opacity="0.38"/>
  <path d="M672 250C672 327 610 389 533 389C456 389 394 327 394 250C394 173 456 111 533 111C610 111 672 173 672 250Z" fill="#30252B"/>
  <path d="M435 403C473 372 526 357 578 362C635 368 683 398 714 445L773 533C806 582 815 643 799 700L770 801L420 801L381 686C365 640 370 588 394 547L435 403Z" fill="url(#figure)"/>
  <path d="M480 468C528 442 590 441 646 465C703 490 748 544 764 610L795 739L448 739L430 641C418 575 437 512 480 468Z" fill="url(#dress)"/>
  <path d="M628 300C628 353 585 396 532 396C479 396 436 353 436 300C436 247 479 204 532 204C585 204 628 247 628 300Z" fill="#54353B"/>
  <path d="M235 163L364 54L454 179L326 283L235 163Z" fill="white" fill-opacity="0.1"/>
  <path d="M936 113L1075 174L1005 335L866 274L936 113Z" fill="white" fill-opacity="0.1"/>
  <path d="M970 546C970 546 1004 477 1082 460" stroke="white" stroke-opacity="0.42" stroke-width="18" stroke-linecap="round"/>
  <path d="M992 594C992 594 1054 569 1116 592" stroke="white" stroke-opacity="0.32" stroke-width="14" stroke-linecap="round"/>
  <circle cx="203" cy="685" r="92" fill="#F3DDBC" fill-opacity="0.24"/>
  <circle cx="240" cy="665" r="48" fill="#FCEBDC" fill-opacity="0.32"/>
</svg>
